<?xml version="1.0" encoding="UTF-8"?>
<svg width="406px" height="294px" viewBox="0 0 406 294" version="1.1" xmlns="http://www.w3.org/2000/svg" xmlns:xlink="http://www.w3.org/1999/xlink">
    <!-- Generator: Sketch 48.2 (47327) - http://www.bohemiancoding.com/sketch -->
    <title>Untitled 6</title>
    <desc>Created with Sketch.</desc>
    <defs></defs>
    <g id="Page-1" stroke="none" stroke-width="1" fill="none" fill-rule="evenodd">
        <g id="Group-2" fill-rule="nonzero">
            <path d="M255.43,25.97 C262.944108,36.8633876 267.06399,49.7380212 267.27,62.97 C263.07557,55.7591087 257.478728,49.4618117 250.81,44.45 C256.789076,55.6038925 259.740461,68.1300426 259.37,80.78 C257.477042,72.6501863 252.533133,65.5583083 245.56,60.97 C249.86,71.72 253.99,84.51 247.63,94.19 C246.068371,89.0256061 244.060816,84.0067189 241.63,79.19 C242.631457,95.2668951 238.830427,111.278561 230.71,125.19 C230.590277,114.820109 227.763623,104.661389 222.51,95.72 C222.600131,108.747829 220.674014,121.711171 216.8,134.15 C214.404929,122.412842 209.956672,111.190641 203.66,101 C201.447032,110.7358 198.146294,120.191878 193.82,129.19 C191.653171,119.497953 188.339841,110.098435 183.95,101.19 C178.31,110.34 179.29,121.92 180.51,132.57 C171.537565,116.866669 167.482774,98.8326034 168.87,80.8 C164.467833,85.9414769 161.66302,92.2566512 160.8,98.97 C153.16,89.07 154.31,75.27 155.8,62.84 C149.218179,68.308504 143.844577,75.0850985 140.02,82.74 C138.67,65.97 146.87,50.11 154.84,35.26 C150.126004,41.7548339 144.158578,47.2394258 137.29,51.39 C141.42853,41.1409828 144.935102,30.6479839 147.79,19.97 C146.38502,24.2266969 143.77646,27.9849678 140.28,30.79 C140.200912,31.501373 140.02251,32.1981506 139.75,32.86 C135.16,43.03 123.62,56.48 123,57.66 C123,57.66 130.28,56.84 135.33,52.15 C127.52,67.07 140.38,94.87 146.54,101.89 C145.36,98.71 145.62,94.22 148.38,92.22 C147.03,121.27 171.26,138.22 171.26,138.22 C171.26,138.22 167.94,131.66 170.74,127.97 C172.31,135.97 206.64,147.11 206.64,163.11 C206.64,146.88 243.56,135.11 247.4,112.82 C248.02,112.82 248.97,119.41 247.07,121.82 C264.65,111.49 276.25,78.7 274.97,69.22 C277.73,72.22 279.34,79 279.34,79 C279.34,79 289.93,54.5 279.01,33.88 C274.88,25.97 270.94,22.47 267.5,19.97 C268.61,24.97 271.14,29.55 273.63,34.04 C268.851466,29.0743551 262.31832,26.1775151 255.43,25.97 Z" id="Shape" fill="#E9551D"></path>
            <path d="M201.56,22.97 C163.72,22.05 149.2,10.6 149.2,0.97 C149.2,18.8 140.97,24.97 140.28,30.8 C143.778039,27.9922755 146.386736,24.2303337 147.79,19.97 C144.933542,30.6344396 141.426985,41.1140351 137.29,51.35 C144.154798,47.2111437 150.121952,41.7404019 154.84,35.26 C146.87,50.11 138.67,65.97 140.02,82.74 C143.834973,75.0903436 149.20645,68.3223509 155.79,62.87 C154.31,75.3 153.2,89.13 160.79,99.1 C161.667398,92.366585 164.501099,86.0385659 168.94,80.9 C167.533816,98.9525652 171.578298,117.011649 180.55,132.74 C179.37,122.09 178.35,110.51 183.99,101.36 C188.388762,110.264678 191.702476,119.665286 193.86,129.36 C198.187861,120.359048 201.488647,110.899479 203.7,101.16 C210.003942,111.348061 214.455872,122.570987 216.85,134.31 C220.722197,121.870997 222.644975,108.907421 222.55,95.88 C227.790332,104.830667 230.615922,114.989005 230.75,125.36 C238.873826,111.449922 242.675105,95.4372074 241.67,79.36 C244.093708,84.1799239 246.101013,89.1981876 247.67,94.36 C254.03,84.66 249.9,71.87 245.61,61.15 C252.566809,65.7555416 257.500111,72.8460461 259.4,80.97 C259.770461,68.3200426 256.819076,55.7938925 250.84,44.64 C257.508728,49.6518117 263.10557,55.9491087 267.3,63.16 C267.09336,49.9296465 262.977308,37.056113 255.47,26.16 C262.360403,26.3455135 268.898403,29.2460997 273.66,34.23 C271.17,29.74 268.66,25.15 267.53,20.16 C261.99,16.23 257.6,14.72 255.1,1.16 C255.07,10.6 239.43,23.88 201.56,22.97 Z" id="Shape" fill="#EF7C10"></path>
            <path d="M180.94,29.19 C174.25,35 173.01,47.49 174.29,56.19 C175.310073,52.1289238 177.480192,48.4484023 180.54,45.59 C178.87,50.59 180.71,56.05 182.71,60.97 C185.1,66.87 187.79,72.71 191.71,77.69 C190.105594,70.8634603 190.582767,63.7128308 193.08,57.16 C193.08,59.62 194.4,61.89 195.58,64.05 C200.984661,73.9667264 204.957453,84.598994 207.38,95.63 C212.72,85 210.99,72.25 214.38,60.87 C219.23,65.72 220.44,73 221.2,79.79 C225.509231,70.9404859 227.106149,61.0145436 225.79,51.26 C229.489949,54.7325534 232.213983,59.1151446 233.69,63.97 C235.366846,56.2198381 235.022485,48.1686764 232.69,40.59 C231.21,35.84 228.62,30.99 224.06,28.85 C222.297712,28.0898866 220.429371,27.6042529 218.52,27.41 C215.24,26.95 211.93,26.69 208.62,26.41 C204.555839,25.9869358 200.460536,25.9534501 196.39,26.31 C192.30387,26.6733249 188.403794,28.1848209 185.14,30.67" id="Shape" fill="#F6A307"></path>
            <path d="M181.94,28.08 C180.05,44.97 216.28,55.82 225.4,29.52 C228.22,21.39 182.38,23.75 181.94,28.08 Z" id="Shape" fill="#B91D1B"></path>
            <path d="M184.74,34.31 C184.74,36.97 221.99,36.08 221.92,33.65 C221.92,33.13 222.18,27.52 222.22,26.9 C211.76,27.46 193.86,27.19 184.71,29.98 L184.71,34.31 L184.74,34.31 Z" id="Shape" fill="#FFFFFF"></path>
            <path d="M203.3,21.33 C209.89,28.18 244.71,29.39 253.6,18.8 C247.53,23.88 239.46,23.36 236.71,22.34 C239.567221,21.6199466 241.75936,19.326751 242.35,16.44 C227.17,31.75 222.71,5.49 203.5,19.52 C187.63,7.97 177.2,24.34 165.1,18.67 L170.25,22.34 C170.25,22.34 162.67,27.34 153.36,18.8 C154.53016,20.5640312 155.955696,22.1445897 157.59,23.49 C170.57,27.97 197.13,26.24 203.3,21.33 Z" id="Shape" fill="#F6A307"></path>
            <path d="M203.5,27.39 C215.17,33.88 243.92,33.59 253.6,18.83 C244.71,29.39 209.89,28.18 203.3,21.33 C197.13,26.24 170.57,27.97 157.59,23.49 C169.69,33.56 193.2,33.13 203.5,27.39 Z" id="Shape" fill="#E9551D"></path>
            <path d="M207.46,157.63 C200.71,161.4 191.56,181.83 208.77,197.96 C207.46,182.81 223.07,174.15 207.46,157.63" id="Shape" fill="#E9551D"></path>
            <path d="M207.07,157.63 C203.76,161.4 200.35,181.83 208.81,197.96 C208.15,182.81 214.71,174.15 207.07,157.63" id="Shape" fill="#EF7C10"></path>
            <path d="M187.53,154.38 C188.87,151.73 206.25,157.04 206.25,157.04 C206.25,157.04 221.56,150.94 224.35,151.89 C227.14,152.84 226.22,167.6 224.35,167.6 C222.48,167.6 206.28,159.33 206.28,159.33 C206.28,159.33 190.64,167.83 189.1,167.6 C187.56,167.37 186.74,155.97 187.53,154.38 Z" id="Shape" fill="#020203"></path>
            <g id="full-logo" transform="translate(0.000000, 212.000000)">
                <g id="Group" transform="translate(202.920000, 40.940000) scale(-1, 1) rotate(-180.000000) translate(-202.920000, -40.940000) translate(0.420000, 0.940000)">
                    <g transform="translate(65.000000, 0.000000)" fill="#1C1C1C" id="Shape">
                        <path d="M0.9625,32.4375 L0.9625,78.9375 L7.33875,78.9375 L7.33875,33.31 C7.33875,15.31 17.08875,6.935 30.33875,6.935 C43.59,6.935 53.46625,15.31125 53.46625,33.31 L53.46625,78.9375 L59.84125,78.9375 L59.84125,32.4375 C59.84125,11.3125 46.84125,1.0625 30.33875,1.0625 C13.83875,1.0625 0.9625,11.315 0.9625,32.4375"></path>
                        <path d="M74.1,57.6875 L80.35,57.6875 L80.35,48.8125 C83.725,54.06375 90.22625,58.8125 98.10125,58.8125 C110.72625,58.8125 117.3525,50.6875 117.3525,38.93625 L117.3525,2.18375 L111.2275,2.18375 L111.2275,38.0625 C111.2275,46.6875 106.8525,53.0625 96.97625,53.0625 C89.35125,53.0625 83.10125,47.6875 80.35,41.06125 L80.35,2.18625 L74.1,2.18625 L74.1,57.68625"></path>
                        <path d="M137.3875,2.1875 L131.1375,2.1875 L131.1375,57.6875 L137.3875,57.6875 L137.3875,2.1875 M134.2625,70.3125 C131.8875,70.3125 130.0125,72.18875 130.0125,74.56375 C130.0125,76.815 131.8875,78.81375 134.2625,78.81375 C136.6375,78.81375 138.51375,76.815 138.51375,74.56375 C138.51375,72.18875 136.6375,70.3125 134.2625,70.3125"></path>
                        <path d="M154.7875,52.3125 L145.41125,52.3125 L145.41125,57.6875 L154.7875,57.6875 L154.7875,71.93875 L160.9125,71.93875 L160.9125,57.6875 L175.2875,57.6875 L175.2875,52.3125 L160.9125,52.3125 L160.9125,15.6875 C160.9125,9.4375 163.6625,6.68875 168.9125,6.68875 C171.66375,6.68875 174.4125,7.5625 176.5375,8.8125 L176.5375,2.93625 C174.4125,1.8125 171.2875,1.06125 168.2875,1.06125 C160.1625,1.06125 154.7875,5.5625 154.7875,15.0625 L154.7875,52.315"></path>
                        <path d="M187.9625,11.4375 C190.58875,11.4375 192.7125,9.31375 192.7125,6.5625 C192.7125,3.9375 190.58875,1.81375 187.9625,1.81375 C185.4625,1.81375 183.3375,3.9375 183.3375,6.5625 C183.3375,9.31375 185.4625,11.4375 187.9625,11.4375"></path>
                        <path d="M203.9875,57.6875 L210.2375,57.6875 L210.2375,48.8125 C213.6125,54.06375 220.1125,58.8125 227.98875,58.8125 C240.61375,58.8125 247.24,50.6875 247.24,38.93625 L247.24,2.18375 L241.11375,2.18375 L241.11375,38.0625 C241.11375,46.6875 236.73875,53.0625 226.86375,53.0625 C219.23875,53.0625 212.98875,47.6875 210.2375,41.06125 L210.2375,2.18625 L203.9875,2.18625 L203.9875,57.68625"></path>
                        <path d="M264.2625,34.3125 L298.64,34.3125 C298.26375,44.06375 293.38875,53.315 282.39,53.315 C272.39,53.315 265.51375,45.93875 264.26375,34.3125 L264.2625,34.3125 Z M304.0175,18.31125 C301.89125,8.0625 294.14,1.06 282.51625,1.06 C267.88875,1.06 257.88875,12.68625 257.88875,29.935 C257.88875,46.4375 267.26375,58.81 282.39,58.81 C297.14125,58.81 304.89,47.43375 304.89,31.6825 L304.89,29.435 L264.01375,29.435 C264.1375,15.30875 271.7625,6.55625 282.515,6.55625 C290.38875,6.55625 296.265,10.93125 298.015,18.30625 L304.01625,18.30625 L304.0175,18.31125 Z"></path>
                        <path d="M317.675,52.3125 L308.3,52.3125 L308.3,57.6875 L317.675,57.6875 L317.675,71.93875 L323.8,71.93875 L323.8,57.6875 L338.1775,57.6875 L338.1775,52.3125 L323.8,52.3125 L323.8,15.6875 C323.8,9.4375 326.5525,6.68875 331.80125,6.68875 C334.5525,6.68875 337.30125,7.5625 339.4275,8.8125 L339.4275,2.93625 C337.30125,1.8125 334.17625,1.06125 331.17625,1.06125 C323.05125,1.06125 317.675,5.5625 317.675,15.0625 L317.675,52.315"></path>
                    </g>
                    <path d="M49.1375,11 L47.56375,9.425 L28.70125,28.2875 L9.83875,9.425 L8.26625,11 L27.12875,29.8625 L8.26625,48.725 L9.83875,50.29875 L28.70125,31.43625 L47.56375,50.29875 L49.1375,48.725 L30.275,29.8625 L49.1375,11 M56.83,47.04125 L45.89,57.9825 L28.705,40.79625 L11.52125,57.9825 L0.58,47.04125 L17.765,29.8575 L0.58,12.6725 L11.52125,1.7325 L28.705,18.9175 L45.89,1.7325 L56.83,12.6725 L39.64625,29.8575 L56.83,47.04125" id="Shape" fill="#000000"></path>
                </g>
            </g>
        </g>
    </g>
</svg>