<?xml version="1.0" encoding="UTF-8"?>
<svg width="416px" height="302px" viewBox="0 0 416 302" version="1.1" xmlns="http://www.w3.org/2000/svg" xmlns:xlink="http://www.w3.org/1999/xlink">
    <!-- Generator: Sketch 48.2 (47327) - http://www.bohemiancoding.com/sketch -->
    <title>Untitled 6</title>
    <desc>Created with Sketch.</desc>
    <defs>
        <filter x="-1.8%" y="-6.8%" width="104.7%" height="123.5%" filterUnits="objectBoundingBox" id="filter-1">
            <feOffset dx="2" dy="4" in="SourceAlpha" result="shadowOffsetOuter1"></feOffset>
            <feGaussianBlur stdDeviation="2.5" in="shadowOffsetOuter1" result="shadowBlurOuter1"></feGaussianBlur>
            <feColorMatrix values="0 0 0 0 0.937254902   0 0 0 0 0.48627451   0 0 0 0 0.062745098  0 0 0 1 0" type="matrix" in="shadowBlurOuter1" result="shadowMatrixOuter1"></feColorMatrix>
            <feMerge>
                <feMergeNode in="shadowMatrixOuter1"></feMergeNode>
                <feMergeNode in="SourceGraphic"></feMergeNode>
            </feMerge>
        </filter>
    </defs>
    <g id="Page-1" stroke="none" stroke-width="1" fill="none" fill-rule="evenodd">
        <path d="M258.43,25.97 C265.944108,36.8633876 270.06399,49.7380212 270.27,62.97 C266.07557,55.7591087 260.478728,49.4618117 253.81,44.45 C259.789076,55.6038925 262.740461,68.1300426 262.37,80.78 C260.477042,72.6501863 255.533133,65.5583083 248.56,60.97 C252.86,71.72 256.99,84.51 250.63,94.19 C249.068371,89.0256061 247.060816,84.0067189 244.63,79.19 C245.631457,95.2668951 241.830427,111.278561 233.71,125.19 C233.590277,114.820109 230.763623,104.661389 225.51,95.72 C225.600131,108.747829 223.674014,121.711171 219.8,134.15 C217.404929,122.412842 212.956672,111.190641 206.66,101 C204.447032,110.7358 201.146294,120.191878 196.82,129.19 C194.653171,119.497953 191.339841,110.098435 186.95,101.19 C181.31,110.34 182.29,121.92 183.51,132.57 C174.537565,116.866669 170.482774,98.8326034 171.87,80.8 C167.467833,85.9414769 164.66302,92.2566512 163.8,98.97 C156.16,89.07 157.31,75.27 158.8,62.84 C152.218179,68.308504 146.844577,75.0850985 143.02,82.74 C141.67,65.97 149.87,50.11 157.84,35.26 C153.126004,41.7548339 147.158578,47.2394258 140.29,51.39 C144.42853,41.1409828 147.935102,30.6479839 150.79,19.97 C149.38502,24.2266969 146.77646,27.9849678 143.28,30.79 C143.200912,31.501373 143.02251,32.1981506 142.75,32.86 C138.16,43.03 126.62,56.48 126,57.66 C126,57.66 133.28,56.84 138.33,52.15 C130.52,67.07 143.38,94.87 149.54,101.89 C148.36,98.71 148.62,94.22 151.38,92.22 C150.03,121.27 174.26,138.22 174.26,138.22 C174.26,138.22 170.94,131.66 173.74,127.97 C175.31,135.97 209.64,147.11 209.64,163.11 C209.64,146.88 246.56,135.11 250.4,112.82 C251.02,112.82 251.97,119.41 250.07,121.82 C267.65,111.49 279.25,78.7 277.97,69.22 C280.73,72.22 282.34,79 282.34,79 C282.34,79 292.93,54.5 282.01,33.88 C277.88,25.97 273.94,22.47 270.5,19.97 C271.61,24.97 274.14,29.55 276.63,34.04 C271.851466,29.0743551 265.31832,26.1775151 258.43,25.97 Z" id="Shape" fill="#E9551D" fill-rule="nonzero"></path>
        <path d="M204.56,22.97 C166.72,22.05 152.2,10.6 152.2,0.97 C152.2,18.8 143.97,24.97 143.28,30.8 C146.778039,27.9922755 149.386736,24.2303337 150.79,19.97 C147.933542,30.6344396 144.426985,41.1140351 140.29,51.35 C147.154798,47.2111437 153.121952,41.7404019 157.84,35.26 C149.87,50.11 141.67,65.97 143.02,82.74 C146.834973,75.0903436 152.20645,68.3223509 158.79,62.87 C157.31,75.3 156.2,89.13 163.79,99.1 C164.667398,92.366585 167.501099,86.0385659 171.94,80.9 C170.533816,98.9525652 174.578298,117.011649 183.55,132.74 C182.37,122.09 181.35,110.51 186.99,101.36 C191.388762,110.264678 194.702476,119.665286 196.86,129.36 C201.187861,120.359048 204.488647,110.899479 206.7,101.16 C213.003942,111.348061 217.455872,122.570987 219.85,134.31 C223.722197,121.870997 225.644975,108.907421 225.55,95.88 C230.790332,104.830667 233.615922,114.989005 233.75,125.36 C241.873826,111.449922 245.675105,95.4372074 244.67,79.36 C247.093708,84.1799239 249.101013,89.1981876 250.67,94.36 C257.03,84.66 252.9,71.87 248.61,61.15 C255.566809,65.7555416 260.500111,72.8460461 262.4,80.97 C262.770461,68.3200426 259.819076,55.7938925 253.84,44.64 C260.508728,49.6518117 266.10557,55.9491087 270.3,63.16 C270.09336,49.9296465 265.977308,37.056113 258.47,26.16 C265.360403,26.3455135 271.898403,29.2460997 276.66,34.23 C274.17,29.74 271.66,25.15 270.53,20.16 C264.99,16.23 260.6,14.72 258.1,1.16 C258.07,10.6 242.43,23.88 204.56,22.97 Z" id="Shape" fill="#EF7C10" fill-rule="nonzero"></path>
        <path d="M183.94,29.19 C177.25,35 176.01,47.49 177.29,56.19 C178.310073,52.1289238 180.480192,48.4484023 183.54,45.59 C181.87,50.59 183.71,56.05 185.71,60.97 C188.1,66.87 190.79,72.71 194.71,77.69 C193.105594,70.8634603 193.582767,63.7128308 196.08,57.16 C196.08,59.62 197.4,61.89 198.58,64.05 C203.984661,73.9667264 207.957453,84.598994 210.38,95.63 C215.72,85 213.99,72.25 217.38,60.87 C222.23,65.72 223.44,73 224.2,79.79 C228.509231,70.9404859 230.106149,61.0145436 228.79,51.26 C232.489949,54.7325534 235.213983,59.1151446 236.69,63.97 C238.366846,56.2198381 238.022485,48.1686764 235.69,40.59 C234.21,35.84 231.62,30.99 227.06,28.85 C225.297712,28.0898866 223.429371,27.6042529 221.52,27.41 C218.24,26.95 214.93,26.69 211.62,26.41 C207.555839,25.9869358 203.460536,25.9534501 199.39,26.31 C195.30387,26.6733249 191.403794,28.1848209 188.14,30.67" id="Shape" fill="#F6A307" fill-rule="nonzero"></path>
        <path d="M184.94,28.08 C183.05,44.97 219.28,55.82 228.4,29.52 C231.22,21.39 185.38,23.75 184.94,28.08 Z" id="Shape" fill="#B91D1B" fill-rule="nonzero"></path>
        <path d="M187.74,34.31 C187.74,36.97 224.99,36.08 224.92,33.65 C224.92,33.13 225.18,27.52 225.22,26.9 C214.76,27.46 196.86,27.19 187.71,29.98 L187.71,34.31 L187.74,34.31 Z" id="Shape" fill="#FFFFFF" fill-rule="nonzero"></path>
        <path d="M206.3,21.33 C212.89,28.18 247.71,29.39 256.6,18.8 C250.53,23.88 242.46,23.36 239.71,22.34 C242.567221,21.6199466 244.75936,19.326751 245.35,16.44 C230.17,31.75 225.71,5.49 206.5,19.52 C190.63,7.97 180.2,24.34 168.1,18.67 L173.25,22.34 C173.25,22.34 165.67,27.34 156.36,18.8 C157.53016,20.5640312 158.955696,22.1445897 160.59,23.49 C173.57,27.97 200.13,26.24 206.3,21.33 Z" id="Shape" fill="#F6A307" fill-rule="nonzero"></path>
        <path d="M206.5,27.39 C218.17,33.88 246.92,33.59 256.6,18.83 C247.71,29.39 212.89,28.18 206.3,21.33 C200.13,26.24 173.57,27.97 160.59,23.49 C172.69,33.56 196.2,33.13 206.5,27.39 Z" id="Shape" fill="#E9551D" fill-rule="nonzero"></path>
        <path d="M210.46,157.63 C203.71,161.4 194.56,181.83 211.77,197.96 C210.46,182.81 226.07,174.15 210.46,157.63" id="Shape" fill="#E9551D" fill-rule="nonzero"></path>
        <path d="M210.07,157.63 C206.76,161.4 203.35,181.83 211.81,197.96 C211.15,182.81 217.71,174.15 210.07,157.63" id="Shape" fill="#EF7C10" fill-rule="nonzero"></path>
        <path d="M190.53,154.38 C191.87,151.73 209.25,157.04 209.25,157.04 C209.25,157.04 224.56,150.94 227.35,151.89 C230.14,152.84 229.22,167.6 227.35,167.6 C225.48,167.6 209.28,159.33 209.28,159.33 C209.28,159.33 193.64,167.83 192.1,167.6 C190.56,167.37 189.74,155.97 190.53,154.38 Z" id="Shape" fill="#020203" fill-rule="nonzero"></path>
        <g id="full-logo" filter="url(#filter-1)" style="mix-blend-mode: color-dodge;" transform="translate(3.000000, 212.000000)" fill-rule="nonzero">
            <g id="Group" transform="translate(202.920000, 40.940000) scale(-1, 1) rotate(-180.000000) translate(-202.920000, -40.940000) translate(0.420000, 0.940000)">
                <g transform="translate(65.000000, 0.000000)" fill="#1C1C1C" id="Shape">
                    <path d="M0.9625,32.4375 L0.9625,78.9375 L7.33875,78.9375 L7.33875,33.31 C7.33875,15.31 17.08875,6.935 30.33875,6.935 C43.59,6.935 53.46625,15.31125 53.46625,33.31 L53.46625,78.9375 L59.84125,78.9375 L59.84125,32.4375 C59.84125,11.3125 46.84125,1.0625 30.33875,1.0625 C13.83875,1.0625 0.9625,11.315 0.9625,32.4375"></path>
                    <path d="M74.1,57.6875 L80.35,57.6875 L80.35,48.8125 C83.725,54.06375 90.22625,58.8125 98.10125,58.8125 C110.72625,58.8125 117.3525,50.6875 117.3525,38.93625 L117.3525,2.18375 L111.2275,2.18375 L111.2275,38.0625 C111.2275,46.6875 106.8525,53.0625 96.97625,53.0625 C89.35125,53.0625 83.10125,47.6875 80.35,41.06125 L80.35,2.18625 L74.1,2.18625 L74.1,57.68625"></path>
                    <path d="M137.3875,2.1875 L131.1375,2.1875 L131.1375,57.6875 L137.3875,57.6875 L137.3875,2.1875 M134.2625,70.3125 C131.8875,70.3125 130.0125,72.18875 130.0125,74.56375 C130.0125,76.815 131.8875,78.81375 134.2625,78.81375 C136.6375,78.81375 138.51375,76.815 138.51375,74.56375 C138.51375,72.18875 136.6375,70.3125 134.2625,70.3125"></path>
                    <path d="M154.7875,52.3125 L145.41125,52.3125 L145.41125,57.6875 L154.7875,57.6875 L154.7875,71.93875 L160.9125,71.93875 L160.9125,57.6875 L175.2875,57.6875 L175.2875,52.3125 L160.9125,52.3125 L160.9125,15.6875 C160.9125,9.4375 163.6625,6.68875 168.9125,6.68875 C171.66375,6.68875 174.4125,7.5625 176.5375,8.8125 L176.5375,2.93625 C174.4125,1.8125 171.2875,1.06125 168.2875,1.06125 C160.1625,1.06125 154.7875,5.5625 154.7875,15.0625 L154.7875,52.315"></path>
                    <path d="M187.9625,11.4375 C190.58875,11.4375 192.7125,9.31375 192.7125,6.5625 C192.7125,3.9375 190.58875,1.81375 187.9625,1.81375 C185.4625,1.81375 183.3375,3.9375 183.3375,6.5625 C183.3375,9.31375 185.4625,11.4375 187.9625,11.4375"></path>
                    <path d="M203.9875,57.6875 L210.2375,57.6875 L210.2375,48.8125 C213.6125,54.06375 220.1125,58.8125 227.98875,58.8125 C240.61375,58.8125 247.24,50.6875 247.24,38.93625 L247.24,2.18375 L241.11375,2.18375 L241.11375,38.0625 C241.11375,46.6875 236.73875,53.0625 226.86375,53.0625 C219.23875,53.0625 212.98875,47.6875 210.2375,41.06125 L210.2375,2.18625 L203.9875,2.18625 L203.9875,57.68625"></path>
                    <path d="M264.2625,34.3125 L298.64,34.3125 C298.26375,44.06375 293.38875,53.315 282.39,53.315 C272.39,53.315 265.51375,45.93875 264.26375,34.3125 L264.2625,34.3125 Z M304.0175,18.31125 C301.89125,8.0625 294.14,1.06 282.51625,1.06 C267.88875,1.06 257.88875,12.68625 257.88875,29.935 C257.88875,46.4375 267.26375,58.81 282.39,58.81 C297.14125,58.81 304.89,47.43375 304.89,31.6825 L304.89,29.435 L264.01375,29.435 C264.1375,15.30875 271.7625,6.55625 282.515,6.55625 C290.38875,6.55625 296.265,10.93125 298.015,18.30625 L304.01625,18.30625 L304.0175,18.31125 Z"></path>
                    <path d="M317.675,52.3125 L308.3,52.3125 L308.3,57.6875 L317.675,57.6875 L317.675,71.93875 L323.8,71.93875 L323.8,57.6875 L338.1775,57.6875 L338.1775,52.3125 L323.8,52.3125 L323.8,15.6875 C323.8,9.4375 326.5525,6.68875 331.80125,6.68875 C334.5525,6.68875 337.30125,7.5625 339.4275,8.8125 L339.4275,2.93625 C337.30125,1.8125 334.17625,1.06125 331.17625,1.06125 C323.05125,1.06125 317.675,5.5625 317.675,15.0625 L317.675,52.315"></path>
                </g>
                <path d="M49.1375,11 L47.56375,9.425 L28.70125,28.2875 L9.83875,9.425 L8.26625,11 L27.12875,29.8625 L8.26625,48.725 L9.83875,50.29875 L28.70125,31.43625 L47.56375,50.29875 L49.1375,48.725 L30.275,29.8625 L49.1375,11 M56.83,47.04125 L45.89,57.9825 L28.705,40.79625 L11.52125,57.9825 L0.58,47.04125 L17.765,29.8575 L0.58,12.6725 L11.52125,1.7325 L28.705,18.9175 L45.89,1.7325 L56.83,12.6725 L39.64625,29.8575 L56.83,47.04125" id="Shape" fill="#000000"></path>
            </g>
        </g>
    </g>
</svg>